<?xml version="1.0" encoding="UTF-8" standalone="no"?>
<svg
   xmlns:dc="http://purl.org/dc/elements/1.1/"
   xmlns:cc="http://creativecommons.org/ns#"
   xmlns:rdf="http://www.w3.org/1999/02/22-rdf-syntax-ns#"
   xmlns:svg="http://www.w3.org/2000/svg"
   xmlns="http://www.w3.org/2000/svg"
   xmlns:xlink="http://www.w3.org/1999/xlink"
   xmlns:sodipodi="http://sodipodi.sourceforge.net/DTD/sodipodi-0.dtd"
   xmlns:inkscape="http://www.inkscape.org/namespaces/inkscape"
   version="1.1"
   id="Capa_1"
   x="0px"
   y="0px"
   viewBox="0 0 550.00003 550.00003"
   xml:space="preserve"
   sodipodi:docname="money.svg"
   inkscape:version="1.0.1 (3bc2e813f5, 2020-09-07)"
   width="550"
   height="550"><metadata
   id="metadata73"><rdf:RDF><cc:Work
       rdf:about=""><dc:format>image/svg+xml</dc:format><dc:type
         rdf:resource="http://purl.org/dc/dcmitype/StillImage" /><dc:title /></cc:Work></rdf:RDF></metadata><defs
   id="defs71"><linearGradient
     inkscape:collect="always"
     id="linearGradient902"><stop
       style="stop-color:#000000;stop-opacity:1;"
       offset="0"
       id="stop898" /><stop
       style="stop-color:#000000;stop-opacity:0;"
       offset="1"
       id="stop900" /></linearGradient><linearGradient
     inkscape:collect="always"
     xlink:href="#linearGradient902"
     id="linearGradient904"
     x1="316.3779"
     y1="459"
     x2="337.00201"
     y2="459"
     gradientUnits="userSpaceOnUse" /></defs><sodipodi:namedview
   pagecolor="#ffffff"
   bordercolor="#666666"
   borderopacity="1"
   objecttolerance="10"
   gridtolerance="10"
   guidetolerance="10"
   inkscape:pageopacity="0"
   inkscape:pageshadow="2"
   inkscape:window-width="1280"
   inkscape:window-height="962"
   id="namedview69"
   showgrid="false"
   inkscape:zoom="0.99504904"
   inkscape:cx="280.75183"
   inkscape:cy="241.11143"
   inkscape:window-x="-8"
   inkscape:window-y="-8"
   inkscape:window-maximized="1"
   inkscape:current-layer="Capa_1"
   inkscape:document-rotation="0" />
<g
   id="g6"
   style="fill:#34bf48;fill-opacity:1"
   transform="translate(18.968083,20.964723)">
	<g
   id="g4"
   style="fill:#34bf48;fill-opacity:1">
		<path
   d="m 341.954,328.358 c -12.131,0 -22,-8.542 -22,-19.041 0,-10.5 9.869,-19.042 22,-19.042 12.131,0 22,8.542 22,19.042 0,5.522 4.478,10 10,10 5.522,0 10,-4.478 10,-10 0,-18.325 -13.654,-33.733 -32,-37.915 v -5.201 c 0,-5.522 -4.478,-10 -10,-10 -5.522,0 -10,4.478 -10,10 v 5.201 c -18.346,4.182 -32,19.59 -32,37.915 0,21.527 18.841,39.041 42,39.041 12.131,0 22,8.542 22,19.042 0,10.5 -9.869,19.042 -22,19.042 -12.131,0 -22,-8.542 -22,-19.042 0,-5.522 -4.478,-10 -10,-10 -5.522,0 -10,4.478 -10,10 0,18.325 13.654,33.733 32,37.915 v 4.32 c 0,5.522 4.478,10 10,10 5.522,0 10,-4.478 10,-10 v -4.32 c 18.346,-4.182 32,-19.59 32,-37.915 0,-21.528 -18.841,-39.042 -42,-39.042 z"
   id="path2"
   style="fill:#34bf48;fill-opacity:1" />
	</g>
</g>
<g
   id="g12"
   style="fill:#298036;fill-opacity:1"
   transform="translate(18.968083,20.964723)">
	<g
   id="g10"
   style="fill:#298036;fill-opacity:1">
		<path
   d="m 451.482,268.876 c -13.063,-20.355 -31.467,-36.643 -53.222,-47.101 -4.979,-2.394 -10.954,-0.298 -13.346,4.68 -2.393,4.978 -0.298,10.952 4.68,13.345 37.911,18.224 62.406,57.163 62.406,99.201 0,17.988 -4.434,35.827 -12.821,51.591 -2.594,4.875 -0.745,10.931 4.131,13.525 1.496,0.796 3.104,1.174 4.688,1.174 3.578,0 7.039,-1.926 8.837,-5.305 9.921,-18.644 15.165,-39.733 15.165,-60.985 0,-24.96 -7.095,-49.209 -20.518,-70.125 z"
   id="path8"
   style="fill:#298036;fill-opacity:1" />
	</g>
</g>
<g
   id="g18"
   style="fill:#298036;fill-opacity:1"
   transform="translate(18.968083,20.964723)">
	<g
   id="g16"
   style="fill:#298036;fill-opacity:1">
		<path
   d="M 357.673,209.002 357,209.001 c -5.522,0 -10,4.477 -10,10 0,5.523 4.478,10 10,10 l 0.579,0.001 c 0.016,0 0.031,0 0.048,0 5.501,0 9.973,-4.446 9.999,-9.953 0.025,-5.523 -4.431,-10.021 -9.953,-10.047 z"
   id="path14"
   style="fill:#298036;fill-opacity:1" />
	</g>
</g>
<g
   id="g24"
   style="fill:#34bf48;fill-opacity:1"
   transform="translate(18.968083,20.964723)">
	<g
   id="g22"
   style="fill:#34bf48;fill-opacity:1">
		<path
   d="m 294.407,438.202 c -37.91,-18.225 -62.405,-57.164 -62.405,-99.201 0,-17.988 4.434,-35.827 12.821,-51.591 2.594,-4.875 0.745,-10.931 -4.131,-13.525 -4.874,-2.594 -10.932,-0.745 -13.525,4.131 -9.921,18.645 -15.165,39.733 -15.165,60.985 0,24.96 7.095,49.208 20.518,70.125 13.063,20.355 31.467,36.643 53.222,47.102 1.397,0.672 2.873,0.989 4.326,0.989 3.724,0 7.298,-2.089 9.02,-5.669 2.391,-4.978 0.297,-10.953 -4.681,-13.346 z"
   id="path20"
   style="fill:#34bf48;fill-opacity:1" />
	</g>
</g>
<g
   id="g30"
   style="fill:#298036;fill-opacity:1"
   transform="translate(18.968083,20.964723)">
	<g
   id="g28"
   style="fill:#298036;fill-opacity:1">
		<path
   d="m 327.002,449.001 -0.579,-0.002 c -5.548,-0.01 -10.02,4.429 -10.045,9.953 -0.026,5.523 4.432,10.021 9.954,10.047 l 0.67,0.002 c 5.522,0 10,-4.478 10,-10 0,-5.522 -4.478,-10 -10,-10 z"
   id="path26"
   style="fill:#298036;fill-opacity:1" />
	</g>
</g>
<g
   id="g36">
	<g
   id="g34"
   style="fill:#34bf48;fill-opacity:1">
		<path
   d="m 406.37708,196.13272 c -1.217,-2.9 -2.708,-5.633 -4.443,-8.168 h 26.034 c 25.364,0 46,-20.636 46,-46 0,-25.364 -20.636,-45.999997 -46,-45.999997 h -80.08 c 5.091,-7.402 8.08,-16.357 8.08,-26 0,-25.364 -20.636,-46 -46,-46 H 64.968083 c -25.364,0 -46,20.636 -46,46 0,25.364 20.636,45.999997 46,45.999997 h 80.079997 c -5.091,7.402 -8.08,16.357 -8.08,26 0,9.643 2.988,18.598 8.08,26 h -26.08 c -25.363997,0 -45.999997,20.636 -45.999997,46 0,14.567 6.814,27.566 17.415,36 -10.601,8.434 -17.415,21.433 -17.415,36 0,14.567 6.814,27.566 17.415,36 -10.601,8.434 -17.415,21.433 -17.415,36 0,14.567 6.814,27.566 17.415,36 -10.601,8.434 -17.415,21.433 -17.415,36 0,25.364 20.636,46 45.999997,46 h 117.85 c 31.046,33.207 75.212,54.001 124.151,54.001 93.738,0 170,-76.262 170,-170 0,-78.017 -52.83,-143.918 -124.592,-163.833 z m 21.591,-80.168 c 14.337,0 26,11.664 26,26 0,14.336 -11.663,26 -26,26 h -64 -181 c -14.337,0 -26,-11.664 -26,-26 0,-14.336 11.663,-26 26,-26 z M 64.968083,95.964723 c -14.337,0 -26,-11.664 -26,-26 0,-14.336 11.663,-26 26,-26 H 309.96808 c 14.337,0 26,11.664 26,26 0,14.336 -11.663,26 -26,26 z m 53.999997,91.999997 h 245 c 4.028,0 7.885,0.936 11.345,2.612 -4.73,-0.397 -9.512,-0.611 -14.344,-0.611 -46.945,0 -89.505,19.129 -120.299,49.999 h -121.702 c -14.336,0 -25.999997,-11.664 -25.999997,-26 0,-14.336 11.663997,-26 25.999997,-26 z m 0,72 h 104.615 c -11.352,15.553 -20.129,33.095 -25.703,52 h -78.912 c -14.337,0 -25.999997,-11.663 -25.999997,-26 0,-14.336 11.662997,-26 25.999997,-26 z m 0,72 h 74.32 c -1.517,9.113 -2.319,18.464 -2.319,28.001 0,8.146 0.589,16.156 1.702,23.999 h -73.703 c -14.337,0 -25.999997,-11.663 -25.999997,-26 0,-14.337 11.662997,-26 25.999997,-26 z m 0,124 c -14.337,0 -25.999997,-11.663 -25.999997,-26 0,-14.337 11.662997,-26 25.999997,-26 h 77.786 c 5.046,18.813 13.243,36.346 23.993,52 z m 242.001,54.001 c -82.71,0 -150,-67.29 -150,-150 0,-82.71 67.29,-150 150,-150 82.71,0 150,67.29 150,150 0,82.71 -67.29,150 -150,150 z"
   id="path32"
   style="fill:#34bf48;fill-opacity:1" />
	</g>
</g>
<g
   id="g38">
</g>
<g
   id="g40">
</g>
<g
   id="g42">
</g>
<g
   id="g44">
</g>
<g
   id="g46">
</g>
<g
   id="g48">
</g>
<g
   id="g50">
</g>
<g
   id="g52">
</g>
<g
   id="g54">
</g>
<g
   id="g56">
</g>
<g
   id="g58">
</g>
<g
   id="g60">
</g>
<g
   id="g62">
</g>
<g
   id="g64">
</g>
<g
   id="g66">
</g>
</svg>
