<?xml version="1.0" encoding="UTF-8" standalone="no"?>
<svg
   xmlns:dc="http://purl.org/dc/elements/1.1/"
   xmlns:cc="http://creativecommons.org/ns#"
   xmlns:rdf="http://www.w3.org/1999/02/22-rdf-syntax-ns#"
   xmlns:svg="http://www.w3.org/2000/svg"
   xmlns="http://www.w3.org/2000/svg"
   xmlns:sodipodi="http://sodipodi.sourceforge.net/DTD/sodipodi-0.dtd"
   xmlns:inkscape="http://www.inkscape.org/namespaces/inkscape"
   version="1.1"
   id="Layer_1_1_"
   x="0px"
   y="0px"
   viewBox="0 0 64 64"
   style="enable-background:new 0 0 64 64;"
   xml:space="preserve"
   width="512"
   height="512"
   sodipodi:docname="fruits.svg"
   inkscape:version="1.0.1 (3bc2e813f5, 2020-09-07)"><metadata
   id="metadata25"><rdf:RDF><cc:Work
       rdf:about=""><dc:format>image/svg+xml</dc:format><dc:type
         rdf:resource="http://purl.org/dc/dcmitype/StillImage" /></cc:Work></rdf:RDF></metadata><defs
   id="defs23" /><sodipodi:namedview
   pagecolor="#ffffff"
   bordercolor="#666666"
   borderopacity="1"
   objecttolerance="10"
   gridtolerance="10"
   guidetolerance="10"
   inkscape:pageopacity="0"
   inkscape:pageshadow="2"
   inkscape:window-width="1280"
   inkscape:window-height="962"
   id="namedview21"
   showgrid="false"
   inkscape:zoom="0.99505093"
   inkscape:cx="243.84083"
   inkscape:cy="157.59823"
   inkscape:window-x="-8"
   inkscape:window-y="-8"
   inkscape:window-maximized="1"
   inkscape:current-layer="g18"
   inkscape:document-rotation="0" />
<g
   id="g18">
	<rect
   x="53"
   y="37"
   width="2"
   height="2"
   id="rect2"
   style="fill:#298036;fill-opacity:1" />
	<rect
   x="53"
   y="45"
   width="2"
   height="2"
   id="rect4"
   style="fill:#298036;fill-opacity:1" />
	<rect
   x="53"
   y="53"
   width="2"
   height="2"
   id="rect6"
   style="fill:#298036;fill-opacity:1" />
	<path
   d="m 61,29 h -4.483 c -0.51,-2.335 -1.607,-4.498 -3.209,-6.298 -0.727,-0.817 -1.576,-1.476 -2.485,-1.95 1.823,-1.265 3.021,-3.37 3.021,-5.752 v -1 h -5 c -2.548,0 -4.775,1.373 -6,3.413 V 15 c 0,-2.206 1.794,-4 4,-4 V 9 c -3.309,0 -6,2.691 -6,6 v 5.549 c -2.959,-1.072 -6.286,-0.27 -8.412,2.094 -0.257,0.286 -0.498,0.583 -0.729,0.887 L 31.79,23.113 C 31.929,22.443 32,21.756 32,21 32,18.191 30.832,15.653 28.961,13.835 l 3.506,-5.16 C 32.542,8.564 32.61,8.447 32.673,8.322 33.436,6.795 32.815,4.931 31.288,4.168 L 31.038,4.043 C 30.299,3.673 29.46,3.613 28.675,3.875 27.89,4.137 27.254,4.688 26.876,5.442 26.822,5.549 26.775,5.66 26.735,5.771 l -2.039,5.608 C 24.558,11.34 24.418,11.304 24.278,11.271 L 24.984,4.202 C 24.995,4.104 25,4.004 25,3.905 25,2.303 23.696,1 22.095,1 H 21.906 C 20.304,1 19,2.303 19,3.905 c 0,0.1 0.005,0.199 0.015,0.29 l 0.707,7.078 c -0.141,0.033 -0.28,0.069 -0.418,0.108 L 17.266,5.774 C 17.225,5.661 17.178,5.55 17.117,5.428 16.747,4.688 16.111,4.137 15.326,3.875 14.542,3.613 13.703,3.673 12.963,4.043 l -0.25,0.125 c -1.526,0.764 -2.147,2.627 -1.383,4.158 0.062,0.121 0.129,0.237 0.206,0.351 l 3.508,5.163 C 13.17,15.668 12,18.225 12,21.072 c 0,0.684 0.071,1.371 0.211,2.04 L 13.438,29 H 12 c -1.103,0 -2,0.897 -2,2 v 0.08 C 9.672,31.033 9.34,31 9,31 H 4 v 1 c 0,2.382 1.198,4.487 3.021,5.752 -0.91,0.474 -1.759,1.133 -2.485,1.951 C 2.256,42.265 1,45.567 1,49 c 0,3.842 1.525,7.425 4.294,10.09 2.634,2.534 6.06,3.911 9.7,3.911 0.187,0 0.373,-0.004 0.561,-0.011 3.559,-0.137 6.796,-1.64 9.203,-3.989 H 54 c 2.757,0 5,-2.243 5,-5 V 35 h 2 c 1.103,0 2,-0.897 2,-2 v -2 c 0,-1.103 -0.897,-2 -2,-2 z M 48.844,16 h 2.899 c -0.465,2.279 -2.484,4 -4.899,4 h -2.899 c 0.464,-2.279 2.484,-4 4.899,-4 z m -14.926,7.98 c 1.629,-1.81 4.324,-2.407 6.554,-1.453 0.12,0.051 0.247,0.091 0.372,0.134 v 2.135 c -0.993,-0.37 -1.936,-1.149 -2.294,-1.505 l -1.413,1.416 c 0.234,0.235 2.36,2.293 4.707,2.293 2.347,0 4.473,-2.058 4.707,-2.293 l -1.413,-1.416 c -0.358,0.355 -1.301,1.134 -2.294,1.505 V 22 h 4 c 0.339,0 0.669,-0.032 0.995,-0.079 1.401,0.1 2.883,0.884 3.975,2.11 1.275,1.432 2.172,3.133 2.645,4.969 h -23.23 c 0.478,-1.858 1.391,-3.577 2.689,-5.02 z M 28.615,6.453 c 0.014,-0.038 0.029,-0.075 0.058,-0.131 0.131,-0.262 0.355,-0.457 0.634,-0.55 0.28,-0.093 0.575,-0.071 0.837,0.06 l 0.25,0.125 c 0.541,0.27 0.761,0.93 0.492,1.467 -0.022,0.045 -0.049,0.09 -0.075,0.129 l -3.422,5.036 C 27.12,12.416 26.843,12.256 26.558,12.109 Z M 21,3.905 C 21,3.406 21.406,3 21.905,3 h 0.189 c 0.499,0 0.905,0.406 0.9,0.995 l -0.702,7.02 C 22.195,11.012 22.099,11 22,11 c -0.099,0 -0.195,0.012 -0.293,0.015 z M 13.191,7.556 C 13.163,7.514 13.136,7.47 13.116,7.428 12.845,6.887 13.065,6.227 13.606,5.957 l 0.25,-0.125 c 0.261,-0.13 0.558,-0.153 0.837,-0.06 0.278,0.093 0.503,0.288 0.644,0.569 0.019,0.036 0.034,0.073 0.049,0.113 l 2.057,5.657 c -0.285,0.147 -0.562,0.307 -0.83,0.48 z M 22,13 c 4.411,0 8,3.589 8,8.072 0,0.547 -0.057,1.096 -0.168,1.632 L 28.52,29 H 17.382 C 18.085,28.385 18.994,28 20,28 v -2 c -1.89,0 -3.576,0.88 -4.677,2.25 L 14.167,22.704 C 14.057,22.168 14,21.619 14,21 c 0,-4.411 3.589,-8 8,-8 z M 12,31 h 2.09 c -0.055,0.326 -0.08709,0.659012 -0.09,1 l -0.0077,0.90956 c 0.6114,0.0096 -2.653335,-0.0453 -2.061981,-0.04591 z m -3,2 c 2.415,0 4.435,1.721 4.899,4 H 11 C 8.585,37 6.565,35.279 6.101,33 Z m 6.478,27.991 C 12.16,61.11 9.054,59.931 6.681,57.648 4.308,55.364 3,52.293 3,49 3,46.057 4.076,43.228 6.029,41.031 7.121,39.804 8.603,39.02 10.005,38.921 10.331,38.968 10.661,39 11,39 h 3 v 2.796 c -0.993,-0.37 -1.936,-1.149 -2.294,-1.505 l -1.413,1.416 C 10.527,41.942 12.653,44 15,44 c 2.347,0 4.473,-2.058 4.707,-2.293 L 18.294,40.291 C 17.936,40.646 16.993,41.425 16,41.796 v -1.883 c 0.479,-0.077 0.943,-0.202 1.372,-0.386 2.229,-0.956 4.925,-0.356 6.553,1.453 2.115,2.351 3.203,5.393 3.063,8.565 -0.273,6.18 -5.33,11.207 -11.51,11.446 z M 28.984,49 c 0,-2.102 -0.449,-4.143 -1.332,-6 H 57 v 6 z M 54,57 H 26.463 c 1.232,-1.754 2.074,-3.797 2.393,-6 H 57 v 3 c 0,1.654 -1.346,3 -3,3 z m 7,-24 h -4 v 8 H 26.475 c -0.328,-0.469 -0.675,-0.926 -1.063,-1.357 -2.227,-2.475 -5.776,-3.259 -8.826,-1.954 -0.183,0.078 -0.384,0.129 -0.585,0.179 V 35 h 39 V 33 H 16 v -1 c 0,-0.347 0.058,-0.678 0.142,-1 H 61 Z"
   id="path8"
   style="fill:#34bf48;fill-opacity:1"
   sodipodi:nodetypes="scccscscsccsccccscccccscccccssssccccscsccccsccsscscsccscsccsscssssscscsccccccsccccsccccccccscccccccssccsccccccccccccsscccccccssccscccscscsccsccsccccscccccccccccccscccsscccccccccccsccc" />
	<path
   d="M7,49H5c0,5.514,4.486,10,10,10v-2C10.589,57,7,53.411,7,49z"
   id="path10"
   style="fill:#298036;fill-opacity:1" />
	<rect
   x="25"
   y="17"
   width="2"
   height="2"
   id="rect12"
   style="fill-opacity:1;fill:#298036" />
	<rect
   x="25"
   y="21"
   width="2"
   height="2"
   id="rect14"
   style="fill:#298036;fill-opacity:1" />
	<rect
   x="25"
   y="25"
   width="2"
   height="2"
   id="rect16"
   style="fill:#298036;fill-opacity:1" />
<path
   style="fill:#34bf48;stroke:#000000;stroke-width:0;stroke-linecap:butt;stroke-linejoin:miter;stroke-opacity:1;fill-opacity:1;stroke-miterlimit:4;stroke-dasharray:none"
   d="m 16,33 0.001,2 h 39 v -2 z"
   id="path850" /><path
   style="fill:none;fill-opacity:1;stroke:none;stroke-width:1.60552;stroke-linecap:butt;stroke-linejoin:miter;stroke-miterlimit:4;stroke-dasharray:none;stroke-opacity:1"
   d="m 43.630537,17.310694 c 1.023735,-1.451179 2.281271,-2.707523 4.789336,-2.92176 l 4.62968,-7.04e-4 c -0.07936,4.139756 -1.39831,4.776319 -2.586805,5.781564 l -2.555122,1.000984 -4.277089,0.06764 z"
   id="path900"
   sodipodi:nodetypes="ccccccc" /><path
   style="fill:none;fill-opacity:1;stroke:none;stroke-width:1.60553;stroke-linecap:butt;stroke-linejoin:miter;stroke-miterlimit:4;stroke-dasharray:none;stroke-opacity:1"
   d="m 13.194332,34.317597 c -1.023735,-1.451179 -2.281271,-2.707523 -4.7893356,-2.92176 l -4.62968,-7.04e-4 c 0.07936,4.139756 1.39831,4.776319 2.586805,5.781564 l 2.555122,1.000984 4.2770886,0.06764 z"
   id="path900-5"
   sodipodi:nodetypes="ccccccc" /></g>
</svg>
