<?xml version="1.0" encoding="UTF-8" standalone="no"?>
<svg
   xmlns:dc="http://purl.org/dc/elements/1.1/"
   xmlns:cc="http://creativecommons.org/ns#"
   xmlns:rdf="http://www.w3.org/1999/02/22-rdf-syntax-ns#"
   xmlns:svg="http://www.w3.org/2000/svg"
   xmlns="http://www.w3.org/2000/svg"
   xmlns:sodipodi="http://sodipodi.sourceforge.net/DTD/sodipodi-0.dtd"
   xmlns:inkscape="http://www.inkscape.org/namespaces/inkscape"
   version="1.1"
   id="Capa_1"
   x="0px"
   y="0px"
   viewBox="0 0 512 512"
   style="enable-background:new 0 0 512 512;"
   xml:space="preserve"
   width="512"
   height="512"
   sodipodi:docname="truck.svg"
   inkscape:version="1.0.1 (3bc2e813f5, 2020-09-07)"><metadata
   id="metadata87"><rdf:RDF><cc:Work
       rdf:about=""><dc:format>image/svg+xml</dc:format><dc:type
         rdf:resource="http://purl.org/dc/dcmitype/StillImage" /></cc:Work></rdf:RDF></metadata><defs
   id="defs85" /><sodipodi:namedview
   pagecolor="#ffffff"
   bordercolor="#666666"
   borderopacity="1"
   objecttolerance="10"
   gridtolerance="10"
   guidetolerance="10"
   inkscape:pageopacity="0"
   inkscape:pageshadow="2"
   inkscape:window-width="1280"
   inkscape:window-height="962"
   id="namedview83"
   showgrid="false"
   inkscape:zoom="0.68250559"
   inkscape:cx="167.56909"
   inkscape:cy="256.43026"
   inkscape:window-x="-8"
   inkscape:window-y="-8"
   inkscape:window-maximized="1"
   inkscape:current-layer="g80"
   inkscape:document-rotation="0" /><g
   id="g80"><g
     id="g6"
     transform="matrix(-1,0,0,1,511.999,0)">
	<g
   id="g4">
		<path
   d="m 119.467,337.067 c -28.237,0 -51.2,22.963 -51.2,51.2 0,28.237 22.963,51.2 51.2,51.2 28.237,0 51.2,-22.963 51.2,-51.2 0,-28.237 -22.964,-51.2 -51.2,-51.2 z m 0,85.333 c -18.825,0 -34.133,-15.309 -34.133,-34.133 0,-18.825 15.309,-34.133 34.133,-34.133 18.824,0 34.133,15.309 34.133,34.133 0,18.824 -15.309,34.133 -34.133,34.133 z"
   data-original="#000000"
   class="active-path"
   style="fill:#34bf48"
   data-old_color="#000000"
   id="path2" />
	</g>
</g><g
     id="g12"
     transform="matrix(-1,0,0,1,511.999,0)">
	<g
   id="g10">
		<path
   d="m 409.6,337.067 c -28.237,0 -51.2,22.963 -51.2,51.2 0,28.237 22.963,51.2 51.2,51.2 28.237,0 51.2,-22.963 51.2,-51.2 0,-28.237 -22.963,-51.2 -51.2,-51.2 z m 0,85.333 c -18.825,0 -34.133,-15.309 -34.133,-34.133 0,-18.825 15.309,-34.133 34.133,-34.133 18.825,0 34.133,15.309 34.133,34.133 0,18.824 -15.308,34.133 -34.133,34.133 z"
   data-original="#000000"
   class="active-path"
   style="fill:#34bf48"
   data-old_color="#000000"
   id="path8" />
	</g>
</g><g
     id="g48"
     style="fill:#298036;fill-opacity:1"
     transform="matrix(-1,0,0,1,511.999,0)">
	<g
   id="g46"
   style="fill:#298036;fill-opacity:1">
		<rect
   x="469.33301"
   y="345.60001"
   width="34.132999"
   height="17.066999"
   data-original="#000000"
   class="active-path"
   style="fill:#298036;fill-opacity:1"
   data-old_color="#000000"
   id="rect44" />
	</g>
</g><g
     id="g24"
     style="fill:#34bf48;fill-opacity:1"
     transform="matrix(-1,0,0,1,511.999,0)">
	<g
   id="g22"
   style="fill:#34bf48;fill-opacity:1">
		<path
   d="M 375.467,277.333 V 217.6 h 68.267 v -17.067 h -76.8 c -4.719,0 -8.533,3.823 -8.533,8.533 v 76.8 c 0,4.719 3.814,8.533 8.533,8.533 h 128 V 277.332 H 375.467 Z"
   data-original="#000000"
   class="active-path"
   style="fill:#34bf48;fill-opacity:1"
   data-old_color="#000000"
   id="path20" />
	</g>
</g><g
     id="g18"
     transform="matrix(-1,0,0,1,511.999,0)">
	<g
   id="g16">
		<path
   d="m 510.643,289.784 -76.8,-119.467 c -1.57,-2.441 -4.275,-3.917 -7.177,-3.917 H 332.8 c -4.719,0 -8.533,3.823 -8.533,8.533 v 213.333 c 0,4.719 3.814,8.533 8.533,8.533 h 34.133 v -17.067 h -25.6 V 183.467 h 80.674 l 72.926,113.442 v 82.825 H 452.266 V 396.8 h 51.2 c 4.719,0 8.533,-3.814 8.533,-8.533 V 294.4 c 10e-4,-1.63 -0.468,-3.243 -1.356,-4.616 z"
   data-original="#000000"
   class="active-path"
   style="fill:#34bf48"
   data-old_color="#000000"
   id="path14" />
	</g>
</g><g
     id="g36"
     style="fill:#298036;fill-opacity:1"
     transform="matrix(-1,0,0,1,511.999,0)">
	<g
   id="g34"
   style="fill:#298036;fill-opacity:1">
		<rect
   x="8.533"
   y="345.60001"
   width="51.200001"
   height="17.066999"
   data-original="#000000"
   class="active-path"
   style="fill:#298036;fill-opacity:1"
   data-old_color="#000000"
   id="rect32" />
	</g>
</g><g
     id="g54"
     transform="matrix(-0.89588001,0,0,1,480.14507,0)"
     style="fill:#f1a541;fill-opacity:1">
	<g
   id="g52"
   style="fill:#298036;fill-opacity:1">
		<rect
   x="34.132999"
   y="140.8"
   width="298.66699"
   height="17.066999"
   data-original="#000000"
   class="active-path"
   style="fill:#298036;fill-opacity:1"
   data-old_color="#000000"
   id="rect50" />
	</g>
</g><g
     id="g42"
     style="fill:#34bf48;fill-opacity:1"
     transform="matrix(-0.98482904,0,0,1,501.48515,0)">
	<g
   id="g40"
   style="fill:#34bf48;fill-opacity:1">
		<rect
   x="179.2"
   y="345.60001"
   width="145.067"
   height="17.066999"
   data-original="#000000"
   class="active-path"
   style="fill:#34bf48;fill-opacity:1"
   data-old_color="#000000"
   id="rect38" />
	</g>
</g><g
     id="g30"
     transform="matrix(-1,0,0,1,511.999,0)">
	<g
   id="g28">
		<path
   d="M 332.8,106.667 H 8.533 C 3.823,106.667 0,110.49 0,115.2 v 273.067 c 0,4.719 3.823,8.533 8.533,8.533 H 76.8 V 379.733 H 17.067 v -256 h 307.2 v 256 H 162.133 V 396.8 H 332.8 c 4.719,0 8.533,-3.814 8.533,-8.533 V 115.2 c 0,-4.71 -3.814,-8.533 -8.533,-8.533 z"
   data-original="#000000"
   class="active-path"
   style="fill:#34bf48"
   data-old_color="#000000"
   id="path26" />
	</g>
</g><g
     id="g60"
     transform="matrix(-1,0,0,1,511.999,0)">
	<g
   id="g58">
		<rect
   x="110.933"
   y="379.733"
   width="17.066999"
   height="17.066999"
   data-original="#000000"
   class="active-path"
   style="fill:#34bf48"
   data-old_color="#000000"
   id="rect56" />
	</g>
</g><g
     id="g66"
     transform="matrix(-1,0,0,1,511.999,0)">
	<g
   id="g64">
		<rect
   x="401.06699"
   y="379.733"
   width="17.066999"
   height="17.066999"
   data-original="#000000"
   class="active-path"
   style="fill:#34bf48"
   data-old_color="#000000"
   id="rect62" />
	</g>
</g><g
     id="g72"
     transform="matrix(-1,0,0,1,511.999,0)">
	<g
   id="g70"
   style="fill:#298036;fill-opacity:1">
		<rect
   x="34.132999"
   y="72.532997"
   width="119.467"
   height="17.066999"
   data-original="#000000"
   class="active-path"
   style="fill:#298036;fill-opacity:1"
   data-old_color="#000000"
   id="rect68" />
	</g>
</g><g
     id="g78"
     style="fill:#298036;fill-opacity:1"
     transform="matrix(-1,0,0,1,511.999,0)">
	<g
   id="g76"
   style="fill:#298036;fill-opacity:1">
		<rect
   y="72.532997"
   width="17.066999"
   height="17.066999"
   data-original="#000000"
   class="active-path"
   style="fill:#298036;fill-opacity:1"
   data-old_color="#000000"
   id="rect74"
   x="0" />
	</g>
</g></g> </svg>
